# xmcd
#
# Track frame offsets:
#	150
#	15766
#	33434
#	54565
#	74047
#	105197
#	123151
#	146865
#	168737
#	186603
#	212108
#
# Disc length: 3019 seconds
#
# Revision: 0
# Processed by: cddbd v1.5.2PL0 Copyright (c) Steve Scherf et al.
# Submitted via: dBpowerAMP V4.0
#
DISCID=a00bc90b
DTITLE=Viengungiai - Asmeniskai
DYEAR=1997
DGENRE=Ballad
TTITLE0=01_Senbernis
TTITLE1=02_Ach, Kaip Tyliai
TTITLE2=03_Kojos
TTITLE3=04_Senukai
TTITLE4=05_Ziema
TTITLE5=06_Negrazios Moterys
TTITLE6=07_Laukiam
TTITLE7=08_Svarstykles
TTITLE8=09_Zenk Zingsni
TTITLE9=10_Pasilik
TTITLE10=11_Meiles Daina (gyvai)
EXTD=MC rip by Saulevas\nsoulshine15@gmail.com
EXTT0=
EXTT1=
EXTT2=
EXTT3=
EXTT4=
EXTT5=
EXTT6=
EXTT7=
EXTT8=
EXTT9=
EXTT10=
PLAYORDER=
